<?xml version="1.0" standalone="no"?>
<svg viewBox="0 0 200 200" xmlns="http://www.w3.org/2000/svg">
  <path fill="#000000" d="M45.3,-72.9C59.3,-70.3,71.9,-59.5,77,-46C82.1,-32.5,79.7,-16.3,73.9,-3.4C68,9.5,58.8,19,52.4,30.4C46,41.7,42.6,54.7,34.3,60C26.1,65.4,13,62.9,2.3,59C-8.5,55,-17,49.6,-22.9,42.9C-28.9,36.3,-32.3,28.5,-43.2,21.1C-54.2,13.8,-72.6,6.9,-75.2,-1.5C-77.9,-10,-64.9,-19.9,-55.3,-29.6C-45.7,-39.3,-39.7,-48.8,-31,-54.5C-22.4,-60.3,-11.2,-62.3,2.2,-66.1C15.6,-69.9,31.2,-75.5,45.3,-72.9Z" transform="translate(100 100)" />
</svg>
