<?xml version="1.0" standalone="no"?>
<svg viewBox="0 0 200 200" xmlns="http://www.w3.org/2000/svg">
  <path fill="#000000" d="M39.7,-68.7C51.3,-62,60.4,-51.1,68.5,-38.9C76.6,-26.8,83.7,-13.4,81.1,-1.5C78.6,10.5,66.5,20.9,58.5,33.3C50.5,45.6,46.6,59.8,37.6,65.6C28.5,71.3,14.3,68.5,-0.6,69.5C-15.4,70.6,-30.8,75.3,-42.7,71.2C-54.6,67.1,-62.9,54.2,-69.5,40.8C-76.1,27.4,-81,13.7,-78.7,1.3C-76.3,-11,-66.8,-22.1,-60.8,-36.3C-54.7,-50.6,-52,-68,-42.5,-75.9C-32.9,-83.8,-16.5,-82.2,-1.2,-80.1C14,-78,28.1,-75.4,39.7,-68.7Z" transform="translate(100 100)" />
</svg>
